<?xml version="1.0" standalone="no"?>
<!DOCTYPE svg PUBLIC "-//W3C//DTD SVG 20010904//EN"
 "http://www.w3.org/TR/2001/REC-SVG-20010904/DTD/svg10.dtd">
<svg version="1.0" xmlns="http://www.w3.org/2000/svg"
 width="560.000000pt" height="560.000000pt" viewBox="0 0 560.000000 560.000000"
 preserveAspectRatio="xMidYMid meet">
<metadata>
Created by potrace 1.14, written by Peter Selinger 2001-2017
</metadata>
<g transform="translate(0.000000,560.000000) scale(0.100000,-0.100000)"
fill="#000000" stroke="none">
<path d="M1089 5595 c-3 -2 -27 -7 -54 -10 -27 -4 -52 -8 -57 -11 -4 -3 -33
-12 -65 -20 -62 -16 -227 -99 -283 -142 -19 -15 -69 -61 -110 -102 -146 -145
-226 -303 -265 -515 -14 -81 -15 -262 -13 -1800 l3 -1710 27 -91 c33 -112 83
-219 143 -304 47 -67 160 -190 174 -190 14 0 41 -36 34 -45 -5 -4 -3 -5 4 -1
6 3 36 -9 65 -27 108 -69 284 -132 398 -141 25 -2 47 -5 50 -6 3 0 131 -1 285
-1 202 0 283 -3 294 -12 10 -8 12 -8 8 -1 -4 8 12 12 54 13 46 1 58 -2 53 -11
-6 -10 -5 -10 7 -2 16 14 302 17 294 4 -3 -5 -1 -12 5 -15 6 -4 9 -1 8 7 -4
18 270 22 291 5 11 -9 13 -9 8 0 -5 8 17 11 81 10 66 -2 86 -5 84 -15 -1 -8 2
-11 8 -7 6 3 8 10 5 15 -2 4 22 8 55 8 33 0 57 -4 55 -8 -3 -5 -1 -12 5 -15 6
-4 9 -1 8 7 -2 9 13 13 55 15 31 1 55 -3 52 -7 -3 -5 -1 -12 5 -15 6 -4 9 -1
8 7 -4 17 150 22 171 5 10 -8 13 -8 8 -1 -4 8 12 12 54 13 46 1 58 -2 53 -11
-6 -10 -5 -10 7 -1 21 17 295 13 291 -5 -1 -8 2 -11 8 -7 6 3 8 10 5 14 -2 5
36 9 86 9 68 1 88 -1 83 -11 -6 -9 -5 -9 7 0 21 17 175 12 171 -5 -1 -8 2 -11
8 -7 6 3 8 11 5 16 -4 5 19 9 54 8 33 -1 58 -5 56 -10 -3 -4 -1 -11 5 -14 6
-4 9 -1 8 7 -2 10 46 13 255 13 141 0 257 2 257 5 0 5 64 11 132 14 14 1 24 4
21 9 -2 4 4 7 15 7 21 0 120 32 167 54 17 8 34 15 39 14 5 0 12 4 15 9 3 4 22
17 41 27 19 10 54 34 77 53 24 19 48 31 54 27 7 -4 9 -3 6 3 -3 5 15 29 40 54
138 132 245 336 280 529 4 25 8 823 8 1775 l0 1730 -24 85 c-74 263 -223 462
-446 596 -57 35 -188 90 -228 98 -15 2 -35 7 -45 10 -9 3 -30 9 -47 13 -32 8
-3468 16 -3476 8z"/>
<path d="M1390 460 c0 -5 5 -10 11 -10 5 0 7 5 4 10 -3 6 -8 10 -11 10 -2 0
-4 -4 -4 -10z"/>
<path d="M1435 460 c-3 -5 -1 -10 4 -10 6 0 11 5 11 10 0 6 -2 10 -4 10 -3 0
-8 -4 -11 -10z"/>
<path d="M1494 462 c4 -3 14 -7 22 -8 9 -1 13 0 10 4 -4 3 -14 7 -22 8 -9 1
-13 0 -10 -4z"/>
<path d="M1615 460 c3 -5 8 -10 11 -10 2 0 4 5 4 10 0 6 -5 10 -11 10 -5 0 -7
-4 -4 -10z"/>
<path d="M1915 459 c-3 -4 2 -6 10 -5 21 3 28 13 10 13 -9 0 -18 -4 -20 -8z"/>
<path d="M2034 462 c4 -3 14 -7 22 -8 9 -1 13 0 10 4 -4 3 -14 7 -22 8 -9 1
-13 0 -10 -4z"/>
<path d="M2210 465 c0 -7 30 -13 34 -7 3 4 -4 9 -15 9 -10 1 -19 0 -19 -2z"/>
<path d="M2335 460 c3 -5 8 -10 11 -10 2 0 4 5 4 10 0 6 -5 10 -11 10 -5 0 -7
-4 -4 -10z"/>
<path d="M2936 458 c3 -4 11 -5 19 -1 21 7 19 12 -4 10 -11 0 -18 -5 -15 -9z"/>
<path d="M3116 462 c-3 -5 1 -9 9 -9 8 0 12 4 9 9 -3 4 -7 8 -9 8 -2 0 -6 -4
-9 -8z"/>
<path d="M3236 458 c3 -4 11 -5 19 -1 21 7 19 12 -4 10 -11 0 -18 -5 -15 -9z"/>
<path d="M3354 462 c4 -3 14 -7 22 -8 9 -1 13 0 10 4 -4 3 -14 7 -22 8 -9 1
-13 0 -10 -4z"/>
<path d="M3596 462 c-3 -5 1 -9 9 -9 8 0 12 4 9 9 -3 4 -7 8 -9 8 -2 0 -6 -4
-9 -8z"/>
<path d="M3714 462 c4 -3 14 -7 22 -8 9 -1 13 0 10 4 -4 3 -14 7 -22 8 -9 1
-13 0 -10 -4z"/>
<path d="M3846 462 c-3 -5 1 -9 9 -9 8 0 12 4 9 9 -3 4 -7 8 -9 8 -2 0 -6 -4
-9 -8z"/>
<path d="M4014 462 c4 -3 14 -7 22 -8 9 -1 13 0 10 4 -4 3 -14 7 -22 8 -9 1
-13 0 -10 -4z"/>
<path d="M4136 462 c-3 -4 4 -9 15 -9 23 -2 25 3 4 10 -8 4 -16 3 -19 -1z"/>
<path d="M4196 455 c-9 -26 -7 -32 5 -12 6 10 9 21 6 23 -2 3 -7 -2 -11 -11z"/>
<path d="M1276 438 c3 -5 10 -6 15 -3 13 9 11 12 -6 12 -8 0 -12 -4 -9 -9z"/>
<path d="M1696 442 c-3 -5 1 -9 9 -9 8 0 12 4 9 9 -3 4 -7 8 -9 8 -2 0 -6 -4
-9 -8z"/>
<path d="M2260 446 c0 -2 8 -10 18 -17 15 -13 16 -12 3 4 -13 16 -21 21 -21
13z"/>
<path d="M2416 442 c-3 -5 1 -9 9 -9 8 0 12 4 9 9 -3 4 -7 8 -9 8 -2 0 -6 -4
-9 -8z"/>
<path d="M3167 439 c7 -7 15 -10 18 -7 3 3 -2 9 -12 12 -14 6 -15 5 -6 -5z"/>
<path d="M3320 440 c-9 -6 -10 -10 -3 -10 6 0 15 5 18 10 8 12 4 12 -15 0z"/>
<path d="M3647 439 c7 -7 15 -10 18 -7 3 3 -2 9 -12 12 -14 6 -15 5 -6 -5z"/>
<path d="M4306 438 c3 -5 10 -6 15 -3 13 9 11 12 -6 12 -8 0 -12 -4 -9 -9z"/>
<path d="M1513 405 c0 -8 4 -12 9 -9 5 3 6 10 3 15 -9 13 -12 11 -12 -6z"/>
<path d="M3909 403 c-13 -16 -12 -17 4 -4 16 13 21 21 13 21 -2 0 -10 -8 -17
-17z"/>
<path d="M4075 411 c-3 -5 -2 -12 3 -15 5 -3 9 1 9 9 0 17 -3 19 -12 6z"/>
<path d="M4395 409 c-4 -6 -5 -12 -2 -15 2 -3 7 2 10 11 7 17 1 20 -8 4z"/>
<path d="M2496 398 c3 -5 10 -6 15 -3 13 9 11 12 -6 12 -8 0 -12 -4 -9 -9z"/>
<path d="M2119 353 c-13 -16 -12 -17 4 -4 16 13 21 21 13 21 -2 0 -10 -8 -17
-17z"/>
</g>
</svg>
